<svg xmlns="http://www.w3.org/2000/svg" width="80" height="80" viewBox="0 0 80 80">
  <g fill="none">
    <path fill="#FFFFFF" d="M39.547,0 C61.387,0 79.093,17.705 79.093,39.546 C79.093,61.387 61.387,79.093 39.547,79.093 C17.705,79.093 0,61.387 0,39.546 C0,17.705 17.705,0 39.547,0"/>
    <g fill="#000000" transform="translate(9 11)">
      <polygon points="17.06 11.257 17.06 .269 14.686 .269 14.686 4.598 11.024 4.598 11.024 .269 8.651 .269 8.651 11.257 11.024 11.257 11.024 6.884 14.686 6.884 14.686 11.257"/>
      <polygon points="29.615 23.552 32.759 34.541 35.142 34.541 36.966 27.325 38.808 34.541 41.155 34.541 44.239 23.552 41.667 23.552 40.009 30.727 38.125 23.552 35.818 23.552 33.939 30.758 32.249 23.552"/>
      <rect width="2.375" height="10.988" x="29.83" y="11.91"/>
      <path d="M44.269,57.969 C47.372,57.969 49.895,55.439 49.895,52.329 C49.895,49.219 47.372,46.689 44.269,46.689 C41.176,46.689 38.659,49.218 38.659,52.329 C38.658,55.438 41.176,57.969 44.269,57.969 Z M44.269,49.033 C46.07,49.033 47.536,50.512 47.536,52.329 C47.536,54.146 46.07,55.625 44.269,55.625 C42.476,55.625 41.017,54.146 41.017,52.329 C41.017,50.512 42.476,49.033 44.269,49.033 Z"/>
      <polygon points="25.718 2.555 25.718 .269 18.517 .269 18.517 11.257 25.718 11.257 25.718 8.971 20.89 8.971 20.89 6.884 24.535 6.884 24.535 4.598 20.89 4.598 20.89 2.555"/>
      <polygon points="21.854 15.936 25.947 22.898 28.374 22.898 28.374 11.91 26 11.91 26 18.641 22.054 11.91 19.481 11.91 19.481 22.898 21.854 22.898"/>
      <path d="M3.192,37.728 C2.921,37.728 2.676,37.578 2.508,37.337 L1.965,37.74 C2.24,38.051 2.647,38.282 3.195,38.282 C3.867,38.282 4.252,37.815 4.252,37.331 C4.252,36.746 3.784,36.562 3.37,36.429 C3.045,36.321 2.752,36.241 2.752,36.007 C2.752,35.815 2.898,35.669 3.17,35.669 C3.407,35.669 3.588,35.77 3.713,35.957 L4.183,35.582 C3.939,35.333 3.656,35.151 3.165,35.151 C2.577,35.151 2.151,35.54 2.151,36.028 C2.151,36.613 2.606,36.771 3.015,36.896 C3.341,36.997 3.646,37.076 3.646,37.326 C3.647,37.535 3.489,37.728 3.192,37.728 Z"/>
      <polygon points="5.646 38.241 5.646 35.748 6.417 35.748 6.417 35.193 4.295 35.193 4.295 35.748 5.065 35.748 5.065 38.241"/>
      <polygon points="59.591 22.898 59.591 14.196 62.198 14.196 62.198 11.91 54.61 11.91 54.61 14.196 57.217 14.196 57.217 22.898"/>
      <polygon points="39.074 55.537 35.488 55.537 35.488 46.835 33.115 46.835 33.115 57.823 39.074 57.823"/>
      <polygon points="57.216 41.057 57.216 46.182 59.591 46.182 59.591 41.057 63.147 35.193 60.553 35.193 58.411 38.687 56.284 35.193 53.689 35.193"/>
      <polygon points="45.342 11.91 45.342 22.898 47.715 22.898 47.715 18.525 51.377 18.525 51.377 22.898 53.75 22.898 53.75 11.91 51.377 11.91 51.377 16.239 47.715 16.239 47.715 11.91"/>
      <path d="M38.86 14.08C40.152 14.08 41.089 14.636 41.726 15.777L43.76 14.452C42.75 12.766 40.925 11.764 38.845 11.764 35.529 11.764 33.146 14.189 33.146 17.404 33.146 20.619 35.567 23.044 38.933 23.044 42.117 23.044 44.399 20.683 44.399 17.551L44.399 16.605 38.933 16.605 38.933 18.847 41.766 18.847C41.346 20.027 40.373 20.729 38.933 20.729 36.911 20.729 35.505 19.3 35.505 17.405 35.506 15.571 36.941 14.08 38.86 14.08zM7.603 33.608C8.258 32.962 8.619 32.191 8.619 31.277 8.619 28.996 6.646 28.263 5.323 27.841 4.186 27.478 3.386 27.202 3.386 26.568 3.386 25.946 3.878 25.56 4.67 25.56 5.399 25.56 6.262 26.005 6.687 26.596L8.502 25.144C7.541 24.134 6.558 23.406 4.655 23.406 2.536 23.406.938 24.796.938 26.64.938 28.876 2.719 29.423 4.165 29.865 5.251 30.196 6.157 30.561 6.157 31.261 6.157 31.927 5.715 32.488 4.742 32.488 3.869 32.488 2.82 31.821 2.285 31.022L.337 32.579C1.453 33.962 3.029 34.686 4.757 34.686 5.903 34.687 6.887 34.313 7.603 33.608z"/>
      <polygon points="41.028 46.182 41.028 35.193 38.763 35.193 35.705 39.549 32.671 35.193 30.391 35.193 30.391 46.182 32.755 46.182 32.755 39.204 35.688 43.254 38.664 39.159 38.664 46.182"/>
      <polygon points="42.485 35.193 42.485 46.182 44.848 46.182 44.848 39.204 47.781 43.254 50.758 39.159 50.758 46.182 53.122 46.182 53.122 35.193 50.857 35.193 47.799 39.549 44.765 35.193"/>
      <polygon points="32.52 55.537 28.933 55.537 28.933 46.835 26.56 46.835 26.56 57.823 32.52 57.823"/>
      <polygon points="12.045 53.45 15.689 53.45 15.689 51.164 12.045 51.164 12.045 49.121 16.873 49.121 16.873 46.835 9.671 46.835 9.671 57.823 12.045 57.823"/>
      <path d="M0.742,2.555 L2.809,2.555 L2.809,11.257 L5.183,11.257 L5.183,2.555 L7.79,2.555 L7.79,0.269 L2.903,0.269 C2.154,1.002 1.433,1.764 0.742,2.555 Z"/>
      <polygon points="16.064 36.124 17.24 38.241 17.858 38.241 17.858 35.193 17.277 35.193 17.277 37.243 16.145 35.193 15.485 35.193 15.485 38.241 16.064 38.241"/>
      <path d="M21.376 46.327C23.776 46.327 25.103 45.007 25.103 42.682L25.103 35.193 22.729 35.193 22.729 42.682C22.729 43.626 22.183 44.129 21.363 44.129 20.52 44.129 20.009 43.671 19.651 42.776L17.559 43.9C18.36 45.541 19.71 46.327 21.376 46.327zM18.527 55.884L22.761 55.884 23.467 57.823 25.95 57.823 21.786 46.835 19.501 46.835 15.337 57.823 17.82 57.823 18.527 55.884zM20.645 50.073L21.945 53.641 19.345 53.641 20.645 50.073zM29.949 29.046C29.949 25.936 27.425 23.406 24.323 23.406 21.229 23.406 18.712 25.935 18.712 29.046 18.712 32.157 21.23 34.687 24.323 34.687 27.425 34.687 29.949 32.156 29.949 29.046zM24.346 32.342C22.552 32.342 21.094 30.863 21.094 29.046 21.094 27.229 22.552 25.75 24.346 25.75 26.146 25.75 27.612 27.229 27.612 29.046 27.612 30.863 26.146 32.342 24.346 32.342zM59.591 55.382L59.591 46.835 57.217 46.835 57.217 53.565 53.334 46.855 53.321 46.834 50.748 46.834 50.748 57.822 53.122 57.822 53.122 50.858 57.182 57.776C58.019 57.014 58.821 56.214 59.591 55.382z"/>
      <rect width="2.374" height="10.988" x="26.56" y="35.193"/>
      <path d="M9.662 37.168L10.016 37.168 10.603 38.241 11.266 38.241 10.573 37.035C10.978 36.88 11.163 36.553 11.163 36.173 11.163 35.597 10.741 35.194 10.039 35.194L9.083 35.194 9.083 38.242 9.663 38.242 9.663 37.168 9.662 37.168zM9.662 35.735L9.972 35.735C10.41 35.735 10.577 35.867 10.577 36.173 10.577 36.389 10.422 36.647 9.972 36.647L9.662 36.647 9.662 35.735zM13.001 23.044C16.104 23.044 18.627 20.515 18.627 17.404 18.627 14.293 16.104 11.764 13.001 11.764 9.907 11.764 7.391 14.293 7.391 17.404 7.391 20.515 9.907 23.044 13.001 23.044zM13.001 14.109C14.803 14.109 16.268 15.588 16.268 17.404 16.268 19.221 14.803 20.7 13.001 20.7 11.208 20.7 9.749 19.221 9.749 17.404 9.749 15.588 11.208 14.109 13.001 14.109zM6.855 37.711L8.024 37.711 8.208 38.241 8.814 38.241 7.732 35.193 7.147 35.193 6.065 38.241 6.671 38.241 6.855 37.711zM7.44 36.02L7.833 37.156 7.048 37.156 7.44 36.02z"/>
      <polygon points="2.81 22.898 5.184 22.898 5.184 14.196 7.791 14.196 7.791 11.91 .202 11.91 .202 14.196 2.81 14.196"/>
      <path d="M13.764,36.173 C13.764,35.597 13.342,35.194 12.64,35.194 L11.684,35.194 L11.684,38.242 L12.264,38.242 L12.264,37.169 L12.618,37.169 L13.204,38.242 L13.868,38.242 L13.175,37.036 C13.579,36.88 13.764,36.553 13.764,36.173 Z M12.573,36.646 L12.263,36.646 L12.263,35.735 L12.573,35.735 C13.011,35.735 13.178,35.867 13.178,36.173 C13.179,36.389 13.024,36.646 12.573,36.646 Z"/>
      <rect width="1" height="3.048" x="14.308" y="35.193"/>
      <path d="M19.88,35.715 C20.276,35.715 20.565,35.895 20.753,36.241 L21.253,35.916 C20.991,35.465 20.503,35.151 19.876,35.151 C18.974,35.151 18.318,35.848 18.318,36.716 C18.318,37.56 18.949,38.281 19.9,38.281 C20.807,38.281 21.391,37.576 21.391,36.758 L21.391,36.525 L19.9,36.525 L19.9,37.08 L20.765,37.08 C20.657,37.469 20.343,37.72 19.9,37.72 C19.315,37.72 18.894,37.277 18.894,36.717 C18.895,36.17 19.324,35.715 19.88,35.715 Z"/>
      <polygon points="15.485 34.541 17.858 34.541 17.858 23.552 15.485 23.552 15.485 27.881 11.823 27.881 11.823 23.552 9.45 23.552 9.45 34.541 11.823 34.541 11.823 30.167 15.485 30.167"/>
    </g>
  </g>
</svg>
