<svg xmlns="http://www.w3.org/2000/svg" width="120" height="120" viewBox="0 0 120 120">
  <g fill="none" fill-rule="evenodd">
    <circle cx="60" cy="60" r="60" fill="#161616"/>
    <g fill="#EE503B" fill-rule="nonzero" transform="translate(20 43)">
      <path d="M28.3169858,6.89897163 C27.7875177,6.54847518 27.0041135,6.12996454 26.8021809,6.05301418 C25.9495213,5.72783688 25.330195,5.82998227 24.7418972,6.23794326 C24.4030674,6.4483156 24.0667199,6.80861702 23.6645922,7.27590426 L23.6633511,7.27714539 L14.5037766,17.3727837 L15.4457979,13.8328191 L17.1238121,9.10210993 C17.1238121,9.10136525 17.1250532,9.10086879 17.1250532,9.10086879 L17.1114007,9.09863475 L17.1188475,9.07505319 L17.1188475,9.07381206 C17.611578,7.52984043 17.2442021,7.23072695 15.8218617,6.26264184 L15.6729255,6.16086879 C14.728422,5.52044326 14.267961,5.87044326 13.9415426,6.82984043 L13.1808511,8.43971631 L5.17801418,15.3944149 L7.5001773,8.80460993 C7.73276596,8.07780142 7.68907801,7.69789007 7.0027305,7.21992908 L7.00235816,7.21992908 L5.40129433,6.13170213 C4.80803191,5.72957447 4.30909574,5.79945035 3.64508865,6.16930851 L1.68533688,7.29079787 C1.07966312,7.62937943 0.93320922,7.97466312 1.43090426,8.31349291 L1.43214539,8.3143617 L3.34349291,9.61382979 L0.171152482,18.8687234 C-0.0634219858,19.6009929 -0.0671453901,20.1215248 0.452890071,20.4757447 L2.25998227,21.7052128 L2.25998227,21.7058333 C2.99473404,22.2057624 3.22930851,21.9855851 3.63888298,21.6028191 L3.63888298,21.6021986 L11.2395922,14.5473404 L10.0605142,17.6079787 L10.059273,17.6107092 C9.34065603,19.8490957 9.46228723,20.0842908 10.9926064,21.1288298 C11.1887057,21.2633688 12.0475709,21.8799645 12.2523582,21.9368085 C12.9945567,22.1424645 13.4612234,21.7462943 14.1016489,20.9645035 L14.1028901,20.9632624 L24.8476418,8.79641844 L24.7781383,18.2975532 L23.1621809,17.5992908 C22.565195,17.3357979 21.8610993,17.0500887 21.8366489,18.0104787 L21.8366489,19.6326418 C21.8366489,20.3525 22.2263652,21.2026773 23.025656,21.5333156 L24.1079255,21.9840957 C24.9518972,22.3477482 25.3453369,22.4495213 26.1992376,21.9828546 C26.2526064,21.9530674 28.0112943,20.9589184 28.0460461,20.9390603 C28.8632092,20.4773582 29.0550887,20.0752305 29.1051064,19.4025355 L29.1274468,18.5734574 L29.1274468,18.5722163 L29.221773,9.05891844 C29.2242553,7.79544326 28.899078,7.28285461 28.3145035,6.8968617"/>
      <path d="M77.4291844,6.78503546 C76.9811348,6.25941489 76.6358511,6.07634752 75.8819858,6.07634752 C75.0305674,6.07634752 74.4487234,6.47884752 74.4487234,6.47884752 L72.973883,7.36129433 C72.3694504,7.70012411 72.2229965,8.04515957 72.7206915,8.3852305 L72.7219326,8.38647163 L74.6332801,9.68593972 C74.8132447,9.83115248 74.7276064,11.8641312 74.0784929,13.6141312 C73.4045567,15.4311525 72.9354078,16.2689184 71.8742376,17.5137766 C70.9334574,18.6183865 69.4242376,19.6783156 68.3630674,19.1061525 C67.2274291,18.494273 67.2708688,16.6995922 68.6088121,13.594273 C69.1809752,12.2675 70.1341667,10.7433865 70.7050887,9.76289007 C71.2772518,8.78363475 70.9793794,7.92849291 70.0472872,7.2173227 L68.7329255,6.23062057 C67.8231738,5.63611702 66.5969326,5.69693262 65.5667908,6.72086879 L57.0017199,15.7203369 L58.4451596,11.0387766 L58.8336348,10.0545567 C58.8336348,10.0545567 58.8348759,10.0545567 58.8348759,10.0533156 C59.3288475,8.50934397 58.7976418,8.2102305 57.3753014,7.24214539 L57.2263652,7.14037234 C56.2818617,6.49994681 55.8226418,6.84994681 55.4962234,7.80934397 L55.4776064,7.84781915 L47.4362943,15.3628901 L49.5263652,8.98842199 C49.5276064,8.98842199 49.5276064,8.98718085 49.5276064,8.98718085 C49.929734,7.73487589 48.8909043,7.05473404 47.700656,6.24551418 C46.5104078,5.43629433 45.9183865,5.95384752 44.9341667,7.09817376 L44.9341667,7.09941489 L35.7758333,17.3586348 L39.3354078,6.27157801 C39.6953369,5.14710993 39.4632447,4.74746454 38.8190957,4.28079787 L37.4352305,3.53363475 L60.2322695,3.53363475 C60.7510638,3.53115248 60.8134929,3.22335106 60.5437943,2.68966312 L59.6824468,0.943262411 C59.3858156,0.358687943 59.0626241,0.060070922 58.4462766,0.0620567376 L15.0003546,0.0620567376 C14.4808156,0.0645390071 14.4185106,0.381028369 14.6882092,0.914716312 L15.5470745,2.66037234 C15.8437057,3.24457447 16.1664007,3.53487589 16.7832447,3.53289007 L35.8315603,3.53289007 L31.3290957,17.591844 L31.328227,17.5949468 C30.6096099,19.8327128 30.7314894,20.0685284 32.2609397,21.1123227 C33.7912589,22.1573582 34.1834574,22.3968972 35.3712234,20.9472518 L35.3724645,20.9460106 L45.7433865,8.9554078 L42.440727,18.7814716 C42.119273,19.843883 42.2073936,20.231117 42.7026064,20.5674645 C43.2524291,20.9422872 43.6024291,21.1805851 44.2589894,21.6261525 C44.9118262,22.0704787 45.2010106,22.1635638 46.0387766,21.3742021 L54.2377128,13.5736702 L52.1277837,18.7760106 C51.7039362,20.105266 51.8832801,20.2753014 53.0819681,21.090727 C53.0839539,21.0919681 53.0856915,21.0932092 53.0878014,21.0956915 L53.8362057,21.6045567 C54.5545745,22.0650177 55.0314184,22.1816844 55.7321631,21.3823936 L66.3488298,9.95402482 C65.7286348,11.1479965 64.9941312,12.3307979 64.568422,13.6097872 C63.580727,16.577961 63.2531915,21.2162057 67.2428191,22.0351064 C67.7833333,22.1460638 68.4024113,22.2299645 68.8555496,22.2175532 C74.5506206,22.0177305 77.6338475,16.2769858 78.2848227,11.7200355 C78.6981206,8.82446809 78.0862411,7.5554078 77.4284397,6.78429078 L77.4291844,6.78503546 Z M11.0163121,31.7382979 C11.0163121,31.2463121 11.0701773,30.8003723 11.178156,30.4003546 C11.2866312,30.0007092 11.4517021,29.6590248 11.6739894,29.3761702 C11.8949113,29.0931915 12.1766489,28.8747518 12.5154787,28.7204787 C12.8543085,28.566578 13.255195,28.4896277 13.7168972,28.4896277 C14.0457979,28.4896277 14.3473936,28.5346809 14.6229255,28.6249113 C14.8984574,28.7155142 15.1367553,28.8470745 15.3403014,29.0205851 C15.5426064,29.194344 15.7064362,29.4040957 15.8305496,29.6498404 C15.9546631,29.8955851 16.0254078,30.1698759 16.0440248,30.4727128 L14.8612234,30.4727128 C14.792961,29.8186348 14.3821454,29.4909752 13.6300177,29.4909752 C13.2303723,29.4909752 12.905195,29.6064007 12.6569681,29.8384929 C12.4075,30.0705851 12.2833865,30.3796277 12.2833865,30.7681028 L12.2833865,32.6620745 C12.2833865,32.8494858 12.3181383,33.0220035 12.3876418,33.1796277 C12.4571454,33.3384929 12.5527128,33.4750177 12.674344,33.5892021 C12.794734,33.7033865 12.9387057,33.7927482 13.1025355,33.8560461 C13.2663652,33.9203369 13.4463298,33.9516135 13.6424291,33.9516135 C14.0420745,33.9516135 14.3610461,33.8520745 14.599344,33.6512589 C14.8376418,33.4514362 14.9567908,33.1374291 14.9567908,32.7077482 L14.9567908,32.4409043 L13.6897163,32.4409043 L13.6897163,31.4405496 L16.1471631,31.4405496 L16.1471631,34.8189184 L15.0450355,34.8189184 L15.018227,34.2548227 C14.7008688,34.7227305 14.2065248,34.957305 13.5338298,34.957305 C13.1158156,34.957305 12.7494326,34.876383 12.4336879,34.7149113 C12.1180674,34.5535638 11.8553191,34.3305319 11.6448227,34.0459397 C11.4343262,33.7617199 11.2767021,33.4228901 11.1714539,33.0306915 C11.0663298,32.6384929 11.0138298,32.2096809 11.0138298,31.7448759 L11.0163121,31.7382979 Z M24.5872518,32.4994858 L26.0915071,32.4994858 L25.3747518,30.0594149 L25.3344149,30.0594149 L24.5867553,32.4994858 L24.5872518,32.4994858 Z M22.6081383,34.8191667 L24.7160816,28.6283865 L25.9758333,28.6283865 L28.0745922,34.8191667 L26.8036702,34.8191667 L26.3940957,33.4985993 L24.2804433,33.4985993 L23.8807979,34.8191667 L22.6098759,34.8191667 L22.6081383,34.8191667 Z M35.2193085,34.8191667 L35.2193085,28.6283865 L37.1467908,28.6283865 L38.3513121,33.4911525 L38.3878014,33.4911525 L39.5698582,28.6290071 L41.5076418,28.6290071 L41.5076418,34.8197872 L40.3701418,34.8197872 L40.3701418,29.9113475 L40.2634043,29.8939716 L38.9929787,34.8175532 L37.6587589,34.8175532 L36.3900709,29.9088652 L36.3578014,29.9088652 L36.3578014,34.8138298 L35.2193085,34.8191667 Z M49.2267553,34.8138298 L49.2267553,28.6230496 L53.4844681,28.6230496 L53.4844681,29.6273759 L50.4099291,29.6273759 L50.4099291,31.1473936 L53.0675709,31.1473936 L53.0675709,32.1465071 L50.4099291,32.1465071 L50.4099291,33.8133511 L53.485461,33.8133511 L53.485461,34.8124645 L49.2267553,34.8138298 Z M60.5764362,32.9631738 L61.7587411,32.9631738 C61.8059043,33.3280674 61.9449113,33.5874645 62.1757624,33.7426064 C62.4066135,33.8977482 62.7044858,33.9759397 63.0693794,33.9759397 C63.415656,33.9759397 63.7073227,33.9039539 63.9443794,33.7599823 C64.1814362,33.6160106 64.299344,33.4087411 64.299344,33.1356915 C64.299344,32.9160106 64.2310816,32.7422518 64.0945567,32.6106915 C63.9580319,32.4803723 63.7495213,32.3798404 63.4677837,32.3078546 L62.2589184,31.9876418 C61.7488121,31.8535993 61.3715071,31.6351596 61.1257624,31.3313298 C60.8800177,31.0275 60.7571454,30.6489539 60.7571454,30.1956915 C60.7571454,29.9467199 60.8105142,29.717234 60.9172518,29.5068617 C61.0239894,29.2963652 61.1741667,29.1159043 61.3677837,28.9644858 C61.5614007,28.8134397 61.7984574,28.695656 62.0764716,28.6112589 C62.3544858,28.5268617 62.6672518,28.4846631 63.0147695,28.4846631 C63.3287766,28.4846631 63.6204433,28.5215248 63.8922518,28.593883 C64.1628191,28.6666135 64.3986348,28.7788121 64.5984574,28.9296099 C64.7982801,29.0810284 64.9621099,29.2746454 65.0887057,29.5117021 C65.2153014,29.7487589 65.294734,30.0276418 65.3245213,30.3477305 L64.1417199,30.3477305 C64.1231028,30.1789362 64.0796631,30.0368262 64.0101596,29.9207801 C63.940656,29.8053546 63.8537766,29.7130142 63.7507624,29.642766 C63.6465071,29.5732624 63.5298404,29.525727 63.3995213,29.4987943 C63.2692021,29.472234 63.1339184,29.459078 62.9949113,29.459078 C62.6660106,29.459078 62.4078546,29.5239894 62.2192021,29.6543085 C62.0305496,29.7846277 61.9362234,29.9616135 61.9362234,30.1867553 C61.9362234,30.4225709 62.0094504,30.6025355 62.1571454,30.7254078 C62.3035993,30.8482801 62.5257624,30.9488121 62.8223936,31.028617 L63.876117,31.3029078 C64.4023582,31.4427837 64.8020035,31.6536525 65.0725709,31.9356383 C65.3431383,32.2181206 65.478422,32.614539 65.478422,33.1253901 C65.478422,33.4096099 65.4213298,33.6640426 65.3059043,33.8891844 C65.1904787,34.1150709 65.0266489,34.3059574 64.8149113,34.4625887 C64.6031738,34.6199645 64.3494858,34.7393617 64.0549645,34.8225177 C63.7608156,34.9056738 63.4368794,34.9473759 63.0843972,34.9473759 C62.7375,34.9473759 62.4179078,34.911383 62.1243794,34.8386525 C61.8302305,34.7654255 61.5733156,34.65 61.3499113,34.4915071 C61.1277482,34.3326418 60.9490248,34.1278546 60.8125,33.8759043 C60.6759752,33.6239539 60.5965426,33.318883 60.5725887,32.960195 L60.5764362,32.9631738 Z"/>
    </g>
  </g>
</svg>
