<?xml version="1.0" encoding="UTF-8"?>
<svg width="60px" height="60px" viewBox="0 0 60 60" version="1.1" xmlns="http://www.w3.org/2000/svg" xmlns:xlink="http://www.w3.org/1999/xlink">
    <!-- Generator: Sketch 41.2 (35397) - http://www.bohemiancoding.com/sketch -->
    <title>mts</title>
    <desc>Created with Sketch.</desc>
    <defs></defs>
    <g id="Symbols" stroke="none" stroke-width="1" fill="none" fill-rule="evenodd">
        <g id="mts">
            <path d="M0,30 C0,13.4314575 13.4315082,-7.10542736e-15 29.9945354,-7.10542736e-15 L30,-7.10542736e-15 L30.0054646,-7.10542736e-15 C46.5709891,-7.10542736e-15 60,13.4278145 60,30 L60,30 C60,46.5685425 46.5721855,60 30,60 L30,60 C13.4314575,60 0,46.5721855 0,30 L0,30 Z" id="base" fill="#E30511" transform="translate(30.000000, 30.000000) rotate(-270.000000) translate(-30.000000, -30.000000) "></path>
            <g id="slice" transform="translate(19.000000, 15.000000)" fill="#FFFFFF">
                <path d="M21.5344294,18.1389054 C21.4775992,20.3662425 21.0691323,22.5016352 20.0554238,24.4916272 C18.7355428,27.0824658 16.7109674,28.8415275 13.8943214,29.6241247 C12.2817649,30.0724431 10.6415036,30.1380159 8.98561411,29.9113621 C7.16846893,29.6626131 5.52039356,29.0061723 4.08898327,27.8443932 C2.73429373,26.7446233 1.76320794,25.3569032 1.08337684,23.7546459 C0.566932536,22.5386981 0.250104253,21.2692941 0.0987938843,19.9599762 C-0.0340466738,18.8088884 -0.0248117687,17.6549496 0.0781929421,16.4995853 C0.318300475,13.8196533 1.01447024,11.2601757 2.07932584,8.79763178 C2.95522107,6.77128958 4.05275403,4.87823122 5.48416432,3.19329525 C6.3302237,2.19758647 7.27857742,1.31663009 8.4222849,0.663040293 C9.94888575,-0.208650357 11.470514,-0.22433081 13.0056393,0.636668622 C14.0420798,1.21755814 14.9229477,1.9866131 15.708625,2.86899496 C17.65719,5.05784369 19.0118795,7.59522612 20.0149323,10.3343162 C20.5974417,11.923744 21.0257992,13.5559366 21.2566719,15.2323196 C21.3895124,16.1959547 21.4442115,17.1695683 21.5344294,18.1389054" id="shape"></path>
            </g>
        </g>
    </g>
</svg>