<?xml version="1.0" encoding="UTF-8"?>
<svg width="60px" height="60px" viewBox="0 0 60 60" version="1.1" xmlns="http://www.w3.org/2000/svg" xmlns:xlink="http://www.w3.org/1999/xlink">
    <!-- Generator: Sketch 41.2 (35397) - http://www.bohemiancoding.com/sketch -->
    <title>yota</title>
    <desc>Created with Sketch.</desc>
    <defs></defs>
    <g id="Symbols" stroke="none" stroke-width="1" fill="none" fill-rule="evenodd">
        <g id="yota">
            <path d="M0,30 C0,13.4314575 13.4315082,7.10542736e-15 29.9945354,7.10542736e-15 L30,7.10542736e-15 L30.0054646,7.10542736e-15 C46.5709891,7.10542736e-15 60,13.4278145 60,30 L60,30 C60,46.5685425 46.5721855,60 30,60 L30,60 C13.4314575,60 0,46.5721855 0,30 L0,30 Z" id="base" fill="#00BDF2" transform="translate(30.000000, 30.000000) rotate(-270.000000) translate(-30.000000, -30.000000) "></path>
            <g id="shape" fill="#FFFFFF">
                <g id="Group-3" transform="translate(19.000000, 11.596999)">
                    <path d="M21.0068695,4.67183198 L21.0068695,2.55988516 C21.0068695,1.23406027 19.9582222,0.159189693 18.664743,0.159189693 C17.368314,0.159189693 16.3211415,1.23406027 16.3211415,2.55988516 L16.3211415,4.67183198 C16.320404,6.38013543 15.6618653,7.90022315 14.6014188,9.0098645 C13.5365477,10.1172382 12.1044287,10.784686 10.5034348,10.7854418 C8.90096592,10.784686 7.47032186,10.1172382 6.40397581,9.0098645 C5.34500423,7.90022315 4.68646549,6.38013543 4.68646549,4.67183198 L4.68646549,2.55988516 C4.68646549,1.23406027 3.63708069,0.159189693 2.34360147,0.159189693 C1.05012224,0.159189693 3.94961622e-13,1.23406027 3.94961622e-13,2.55988516 L3.94961622e-13,4.67183198 C-0.000737445395,7.66514245 1.16811351,10.4029633 3.06187328,12.3765829 C4.42688471,13.8052083 6.19011665,14.8475758 8.1598333,15.3154695 L8.1598333,20.3700824 C6.19011665,20.8379762 4.42688471,21.8803436 3.06187328,23.3104808 C1.16811351,25.2833445 -0.000737445395,28.0196536 3.94961622e-13,31.0144758 L3.94961622e-13,33.1264227 C3.94961622e-13,34.4514917 1.05012224,35.5263623 2.34360147,35.5263623 C3.63708069,35.5263623 4.68646549,34.4514917 4.68646549,33.1264227 L4.68646549,31.0144758 C4.68646549,29.3061724 5.34500423,27.7845729 6.40397581,26.6756874 C7.47032186,25.5683138 8.90096592,24.900866 10.5034348,24.8993542 C12.1044287,24.900866 13.5365477,25.5683138 14.6014188,26.6756874 C15.6618653,27.7845729 16.320404,29.3061724 16.3211415,31.0144758 L16.3211415,33.1264227 C16.3211415,34.4514917 17.368314,35.5263623 18.664743,35.5263623 C19.9582222,35.5263623 21.0068695,34.4514917 21.0068695,33.1264227 L21.0068695,31.0144758 C21.0083444,28.0196536 19.838756,25.2833445 17.9449963,23.3104808 C16.5799848,21.8803436 14.8167529,20.8379762 12.8470362,20.3700824 L12.8470362,15.3154695 C14.8167529,14.8475758 16.5799848,13.8052083 17.9449963,12.3765829 C19.838756,10.4029633 21.0083444,7.66514245 21.0068695,4.67183198 Z" id="Fill-1"></path>
                </g>
                <path d="M29.5032135,46.6174466 C31.7443101,46.6174466 33.5606381,44.7572099 33.5606381,42.4600709 C33.5606381,40.162176 31.7443101,38.3004276 29.5032135,38.3004276 C27.2628544,38.3004276 25.4465264,40.162176 25.4465264,42.4600709 C25.4465264,44.7572099 27.2628544,46.6174466 29.5032135,46.6174466" id="Fill-4"></path>
            </g>
        </g>
    </g>
</svg>