<?xml version="1.0" encoding="UTF-8"?>
<svg width="60px" height="60px" viewBox="0 0 60 60" version="1.1" xmlns="http://www.w3.org/2000/svg" xmlns:xlink="http://www.w3.org/1999/xlink">
    <!-- Generator: Sketch 41.2 (35397) - http://www.bohemiancoding.com/sketch -->
    <title>tele2</title>
    <desc>Created with Sketch.</desc>
    <defs></defs>
    <g id="Symbols" stroke="none" stroke-width="1" fill="none" fill-rule="evenodd">
        <g id="tele2">
            <path d="M0,30 C0,13.4314575 13.4315082,7.10542736e-15 29.9945354,7.10542736e-15 L30,7.10542736e-15 L30.0054646,7.10542736e-15 C46.5709891,7.10542736e-15 60,13.4278145 60,30 L60,30 C60,46.5685425 46.5721855,60 30,60 L30,60 C13.4314575,60 0,46.5721855 0,30 L0,30 Z" id="base" fill="#282828" transform="translate(30.000000, 30.000000) rotate(-270.000000) translate(-30.000000, -30.000000) "></path>
            <g id="symbol" fill="#FFFFFF">
                <path d="M18.2827176,25.6530741 L16.0351915,25.9507141 L16.0351915,36.7071132 L18.2827176,36.7071132 L18.2827176,25.6530741 Z M20.8236317,29.7176573 L18.697738,29.8912241 L18.697738,32.4194694 L20.8236317,32.2953963 L20.8236317,29.7176573 Z M15.2532689,26.0741093 L9.43897297,26.8924499 L9.43897297,29.0979693 L15.2532689,28.4287878 L15.2532689,26.0741093 Z M25.831946,36.7071132 L29.5203482,36.7071132 L29.5203482,33.9063136 L25.831946,34.005301 L25.831946,36.7071132 Z M25.3427431,24.6367588 L22.8024973,25.0089783 L22.8024973,36.7071132 L25.3427431,36.7071132 L25.3427431,24.6367588 Z M18.697738,36.7071132 L21.9470606,36.7071132 L21.9470606,34.1293742 L18.697738,34.2283615 L18.697738,36.7071132 Z M18.697738,28.0572462 L21.9470606,27.6857047 L21.9470606,25.1323735 L18.697738,25.5784946 L18.697738,28.0572462 Z M13.4214315,36.7071132 L13.4214315,28.998982 L11.2955378,29.2220425 L11.2955378,36.7071132 L13.4214315,36.7071132 Z M49.0156156,36.7071132 L49.0403431,33.2866257 L39.0237146,33.6086736 L39.0237146,36.7071132 L49.0156156,36.7071132 Z M42.2489781,27.7596062 C42.1019499,25.7771472 42.7127852,25.2815325 43.3236204,25.0333862 L43.3236204,21.7125641 C40.4164724,22.332252 38.9996555,24.5126856 39.1460154,28.0321604 L42.2489781,27.7596062 Z M45.2049127,25.5540867 C45.5470874,26.272762 45.2049127,27.3385709 44.3494761,28.3548862 C43.0796873,29.8912241 39.6345499,33.0635652 39.6345499,33.0635652 L44.56935,32.8899983 C47.5747395,29.915632 48.6493818,28.1067399 48.8451966,25.8266409 C48.966829,24.6367588 48.5270811,23.4970483 47.6723128,22.6787077 C46.7440304,21.7864656 45.376,21.414924 43.9097282,21.6379845 L43.9097282,24.8849051 C44.4965042,24.8598193 44.9850388,25.0828798 45.2049127,25.5540867 L45.2049127,25.5540867 Z M38.0713731,22.8278667 L33.7961948,23.4224688 L33.7961948,26.3717493 L38.0713731,25.9012204 L38.0713731,22.8278667 Z M33.2341462,23.4970483 L30.3022707,23.9180835 L30.3022707,36.7071132 L33.2341462,36.7071132 L33.2341462,23.4970483 Z M36.6051012,28.3298004 L33.7961948,28.5779468 L33.7961948,31.576721 L36.6051012,31.427562 L36.6051012,28.3298004 Z M38.0713731,33.6337594 L33.7961948,33.7578326 L33.7961948,36.7071132 L38.0713731,36.7071132 L38.0713731,33.6337594 Z" id="shape"></path>
            </g>
        </g>
    </g>
</svg>